<?xml version="1.0" encoding="UTF-8" standalone="no"?>
<!-- Created with Inkscape (http://www.inkscape.org/) -->

<svg
   width="512"
   height="512"
   viewBox="0 0 512 512"
   version="1.1"
   id="svg5"
   inkscape:version="1.2.2 (b0a8486541, 2022-12-01)"
   sodipodi:docname="ebitenui_player.svg"
   xmlns:inkscape="http://www.inkscape.org/namespaces/inkscape"
   xmlns:sodipodi="http://sodipodi.sourceforge.net/DTD/sodipodi-0.dtd"
   xmlns="http://www.w3.org/2000/svg"
   xmlns:svg="http://www.w3.org/2000/svg">
  <sodipodi:namedview
     id="namedview7"
     pagecolor="#ffffff"
     bordercolor="#000000"
     borderopacity="0.25"
     inkscape:showpageshadow="2"
     inkscape:pageopacity="0.0"
     inkscape:pagecheckerboard="0"
     inkscape:deskcolor="#d1d1d1"
     inkscape:document-units="px"
     showgrid="false"
     inkscape:zoom="1.0029297"
     inkscape:cx="284.66602"
     inkscape:cy="522.46933"
     inkscape:window-width="2742"
     inkscape:window-height="1457"
     inkscape:window-x="0"
     inkscape:window-y="0"
     inkscape:window-maximized="1"
     inkscape:current-layer="layer1" />
  <defs
     id="defs2" />
  <g
     inkscape:label="Layer 1"
     inkscape:groupmode="layer"
     id="layer1">
    <path
       style="fill:#000000;stroke-width:2;stroke:#ffffff;stroke-opacity:1;stroke-dasharray:none"
       id="path235"
       d="m 116.00545,294.98426 c -8.54502,-10.34085 -15.87367,-21.46367 -21.991608,-33.38808 -2.57812,-6.49047 -7.52652,-14.54701 -4.60086,-21.79364 0.40816,-1.011 1.08678,-1.89043 1.63017,-2.83564 4.91283,-6.34022 11.099158,-7.35386 18.673338,-7.91433 6.51433,-0.0424 12.85746,1.53347 18.79969,4.16626 1.83383,0.81252 7.08808,3.75175 5.36439,2.72607 -3.981,-2.3689 -8.09523,-4.5064 -12.14285,-6.75959 9.33209,6.36244 18.15037,13.91515 24.58759,23.29672 1.08435,1.58035 1.99032,3.27595 2.9855,4.91392 3.70652,7.31906 5.98356,15.40269 4.87859,23.65778 -0.19205,1.4348 -0.59462,2.83347 -0.89193,4.25021 -2.798,9.21879 -9.60136,15.45263 -17.28622,20.74056 -6.32261,3.85929 -13.03996,7.17115 -20.13931,9.34712 -4.80711,1.47341 -6.55262,1.64196 -11.51833,2.55216 -10.662968,1.38031 -21.478498,2.1699 -32.226747,1.5795 -3.480143,-0.6593 -5.137775,-0.79161 -8.447565,-2.15229 -1.422725,-0.58489 -5.468151,-2.81892 -4.124086,-2.07077 4.648242,2.58737 9.080999,5.66198 14.039215,7.58987 1.605452,0.62424 -2.606818,-2.27116 -3.726608,-3.58006 -1.176195,-1.37484 -2.08669,-2.95639 -3.130034,-4.43458 -5.692705,-10.28104 -7.557549,-21.90183 -8.802399,-33.42531 -1.226156,-11.12289 -0.586244,-22.23314 1.513933,-33.18946 2.457929,-10.6203 7.056211,-20.462 12.786162,-29.67142 6.932527,-9.68221 15.382091,-18.16873 23.973921,-26.36864 5.844668,-5.23759 11.457258,-10.77122 17.553908,-15.72411 1.0917,-0.88689 6.96453,-5.2938 7.99593,-6.07071 10.61023,-7.56472 20.73887,-15.74139 30.76606,-24.05284 9.68173,-7.4649 18.15978,-16.21694 26.46144,-25.14027 4.86944,-5.42185 9.75577,-10.89402 13.40526,-17.24428 2.23083,-3.88169 2.35526,-4.632577 3.98586,-8.761825 2.52844,-7.185711 2.94635,-14.757469 0.13399,-21.937786 -0.57554,-1.469403 -1.36447,-2.846021 -2.0467,-4.269035 -2.15556,-3.454784 -2.70289,-4.656052 -5.41414,-7.712386 -8.25409,-9.30469 -21.62114,-15.09228 -31.6505,-20.88396 -4.8411,-2.57086 -9.07205,-4.45945 -14.50613,-5.18197 -4.67666,-0.65221 -8.70899,1.39318 -12.50441,3.86614 -7.5766,5.08504 -13.23839,11.75207 -18.15036,19.346077 -3.36072,5.926798 -6.22906,12.179478 -7.88833,18.811347 -1.10837,4.429979 -1.31954,6.812465 -1.96037,11.355807 -1.63124,12.346981 -1.08355,24.741561 0.11624,37.086611 1.34885,11.66247 2.6817,23.30834 3.35952,35.03203 0.43578,11.11311 1.12087,22.2158 1.1693,33.33961 -0.15208,10.79049 -0.37874,21.57972 -0.53725,32.3702 -0.001,9.23968 0.92831,18.44433 1.42342,27.6647 0.31498,10.05156 1.3962,20.06123 3.00237,29.9832 1.55433,10.1365 3.36675,20.23085 4.98197,30.35705 1.71864,9.8665 2.82604,19.82052 3.10558,29.83054 -0.0149,8.16353 -0.0798,16.33568 -0.82538,24.46884 -0.82468,8.45983 -1.59036,16.91527 -3.14829,25.27724 -0.93965,6.06102 -3.94119,10.96162 -7.79531,15.57102 -3.75571,4.15013 -8.989388,5.88697 -14.147098,7.57868 -4.87778,1.9673 -10.0162,2.74925 -15.217428,3.20249 -0.742087,0.0454 -3.169442,0.26848 -3.972493,0.0412 -0.649667,-0.18395 -2.376757,-1.28249 -1.787905,-0.95211 5.328645,2.9897 10.591836,6.10156 16.007656,8.93026 0.93496,0.48834 -1.70994,-1.23679 -2.5353,-1.89358 -0.85838,-0.68305 -1.67577,-1.4161 -2.51365,-2.12414 -3.801608,-3.36839 -7.449183,-6.93615 -10.35124,-11.11919 -1.489368,-2.44959 -2.70257,-5.1447 -2.560932,-8.05506 0.385865,-2.38257 2.498612,-3.17838 4.557963,-3.84127 3.040807,-0.87372 5.787773,0.27062 8.434909,1.72907 -5.672886,-3.21983 -11.304967,-6.51264 -17.018668,-9.65949 -0.369954,-0.20374 0.685701,0.50374 0.966866,0.81891 1.069635,1.19896 0.518775,2.33122 -0.408371,3.33891 -2.491505,1.6599 -5.31514,1.68861 -8.074408,0.79382 -1.539379,-1.05791 -0.743425,-0.55646 -2.389826,-1.50123 0,0 16.626573,13.35163 16.626573,13.35163 v 0 c 1.766127,0.84228 0.847929,0.49812 2.756793,1.02662 3.433355,0.34008 6.761201,-0.278 9.373631,-2.6925 8.07042,-10.36228 -12.842107,-15.32832 -18.514819,-18.73338 -3.131523,-1.18504 -6.270262,-1.68726 -9.469297,-0.3713 -2.690679,1.19698 -5.044866,2.80168 -5.748385,5.84876 -0.514224,3.34689 0.437194,6.41644 1.989712,9.39948 2.73564,4.46675 6.363255,8.19624 10.227915,11.7155 8.873637,7.81337 19.323324,17.95733 31.708744,16.25739 5.290728,-0.60992 10.478168,-1.64339 15.450268,-3.61858 5.47897,-1.89013 10.89129,-4.05204 14.77743,-8.56767 4.04465,-4.91081 7.26088,-10.13669 8.2338,-16.55918 1.55632,-8.41862 2.40456,-16.92471 3.23204,-25.44123 0.83108,-8.21541 0.89361,-16.46796 0.88976,-24.72118 -0.21219,-10.10334 -1.30215,-20.15294 -3.04264,-30.10882 -1.57956,-10.12424 -3.39466,-20.21114 -4.91412,-30.34555 -1.69895,-9.83417 -2.88258,-19.76849 -3.08957,-29.75603 -0.43739,-9.19798 -1.44206,-18.36391 -1.53862,-27.57514 0.1056,-10.80408 0.34584,-21.60526 0.52794,-32.40812 0.007,-11.16682 -0.72511,-22.30684 -1.16277,-33.4619 -0.62451,-11.76176 -1.88356,-23.44297 -3.351,-35.12754 -1.21501,-12.18709 -1.90528,-24.4255 -0.29998,-36.625655 0.61447,-4.474986 0.79591,-6.693836 1.86752,-11.049583 1.58491,-6.442172 4.33742,-12.527747 7.60359,-18.278284 4.7979,-7.358628 10.31594,-13.728977 17.83387,-18.44658 3.67689,-2.13789 7.38695,-3.49431 11.6915,-2.57369 4.97403,1.00808 9.45374,3.25585 13.90758,5.64643 -4.82877,-2.82438 -9.6312,-5.69431 -14.48635,-8.47315 -1.22366,-0.70037 2.43154,1.43308 3.59007,2.23665 4.97524,3.45093 9.27894,7.713067 12.39355,12.931617 0.72195,1.325052 1.54389,2.600324 2.16582,3.975157 3.0158,6.666706 2.8929,13.805634 0.54797,20.647877 -0.54645,1.419219 -1.01862,2.869308 -1.63937,4.257642 -3.58411,8.016099 -9.43078,14.665039 -15.2375,21.130009 -8.25184,8.83143 -16.73337,17.44993 -26.2304,24.9691 -10.02024,8.31144 -20.26243,16.32023 -30.87581,23.86602 -9.030398,6.77269 -17.403378,14.28486 -25.582944,22.06353 -8.724425,8.32024 -17.302875,16.9331 -24.320362,26.77659 -5.858241,9.42324 -10.550016,19.49422 -13.17502,30.32576 -2.226205,11.13507 -2.886996,22.44847 -1.736436,33.77519 1.186279,11.77677 2.97816,23.60532 8.337701,34.31485 0.983774,1.59453 1.830677,3.28211 2.951322,4.78362 6.270295,8.40134 16.598836,12.0321 25.512703,17.13036 3.975708,2.27391 8.615308,3.06714 13.086908,3.57813 10.82149,0.28249 21.682978,-0.45438 32.387528,-2.05746 5.16054,-1.03364 6.73856,-1.19137 11.72418,-2.81056 7.21511,-2.34324 14.08039,-5.75447 20.50164,-9.76625 8.2203,-5.81293 14.93084,-12.22375 18.12165,-22.07118 0.33881,-1.50692 0.78443,-2.99375 1.01643,-4.52079 1.30702,-8.60212 -0.75227,-17.08183 -4.42649,-24.84743 -0.97697,-1.71338 -1.85613,-3.48635 -2.93093,-5.1401 -6.26098,-9.63358 -15.08907,-17.37987 -24.32724,-24.04548 -11.90859,-6.95363 -24.97092,-16.80666 -39.30014,-19.34047 -3.812858,-0.67423 -5.465498,-0.51694 -9.304548,-0.53075 -8.26287,0.91428 -14.648883,2.57991 -19.823019,9.57548 -1.603573,2.79924 -2.483063,3.71233 -2.936764,6.99535 -0.950914,6.88091 2.794148,13.52509 5.26179,19.63489 5.974433,11.90746 13.026283,23.15308 21.471453,33.48452 0,0 19.467448,8.46255 19.467448,8.46255 z" />
    <path
       style="fill:#000000;stroke-width:2;stroke:#ffffff;stroke-opacity:1;stroke-dasharray:none"
       id="path243"
       d="m 301.37729,211.1988 c 10.01825,5.87802 -6.65629,-3.93104 -11.84284,-6.57071 -1.10644,-0.56311 2.00681,1.46654 2.94864,2.27544 2.3795,2.04367 3.51653,3.37136 4.34682,6.33075 -0.41113,3.52817 -3.34238,6.65069 -6.73178,7.74895 -0.68688,0.22257 -1.42727,0.21972 -2.1409,0.32957 -0.81902,-0.13114 -1.65747,-0.17273 -2.45704,-0.39334 -0.93491,-0.25797 -1.83506,-0.63641 -2.71927,-1.03489 -0.9501,-0.42817 -3.67969,-1.95738 -2.7745,-1.44099 24.65547,14.06514 16.9436,11.06795 10.95777,4.37441 -3.33388,-4.62854 -4.71046,-10.02664 -4.1569,-15.6608 0.47639,-1.26019 0.53951,-2.09817 1.79369,-2.84827 3.06507,-1.83314 7.57358,-0.97726 10.82937,-0.51823 3.36711,0.95904 4.10415,1.04813 7.36024,2.47635 1.19572,0.52447 4.6376,2.39588 3.51344,1.73176 -34.52133,-20.39448 -15.78621,-9.5907 -12.13372,-6.40502 0.92183,0.80403 1.71359,1.74603 2.57039,2.61904 3.53366,4.42083 6.28228,9.84058 5.79047,15.67276 -0.0972,1.15247 -0.43039,2.27274 -0.64558,3.40911 -2.92412,8.06459 -7.35859,10.73913 -15.42178,12.53502 -3.72808,0.67329 -7.18527,0.82142 -10.71997,-0.74637 -1.28769,-0.57113 -4.92669,-2.73418 -3.68736,-2.06458 15.40913,8.32548 18.46216,11.41874 10.81174,4.76591 -6.15278,-6.18495 -8.39237,-14.17057 -9.59187,-22.54491 -0.66987,-5.71227 0.4155,-11.25634 3.01004,-16.34457 3.18769,-4.14866 8.47212,-2.73327 12.90655,-1.88798 5.68407,1.61195 11.35476,3.55765 16.60451,6.30703 1.2568,0.65821 4.9299,2.80963 3.68,2.13842 -4.81914,-2.5879 -9.59283,-5.25953 -14.38922,-7.88931 6.61189,4.91599 10.809,9.95491 13.65327,17.66428 2.14497,7.43572 -0.36327,14.24955 -4.05205,20.67649 -3.05779,4.49269 -7.18418,8.03499 -12.82832,8.31976 -1.10908,0.0559 -2.21906,-0.0927 -3.32859,-0.13896 -3.80289,-0.63099 -7.66083,-1.55333 -11.25108,-2.99191 -1.27798,-0.51207 -4.90655,-2.49078 -3.72531,-1.78358 20.88135,12.50166 17.36339,10.23017 10.66876,5.61052 -6.82719,-5.03855 -10.68316,-9.64536 -13.94364,-17.44006 -2.26397,-5.9405 -2.82878,-12.04457 -1.91316,-18.29265 1.30568,-6.05225 4.26061,-11.46609 8.2159,-16.16675 3.71366,-4.34645 8.47927,-7.2879 13.62659,-9.61032 5.407,-2.08876 11.27576,-2.24195 16.99852,-2.45306 4.64025,-0.35854 9.13505,0.46066 13.60608,1.56315 3.28567,0.86111 6.5636,1.75561 9.82694,2.70837 4.21954,1.33571 8.21643,3.25489 12.14538,5.27173 7.13836,3.84207 6.72693,3.64712 -13.65369,-7.91449 -0.7079,-0.40158 1.3902,0.84685 2.07807,1.28184 1.97055,1.24608 3.87633,2.56815 5.76337,3.93599 3.30212,2.36972 6.44194,4.92578 9.21533,7.8985 2.49524,2.96583 4.88146,6.03892 7.0667,9.24185 2.42377,3.44217 3.91626,7.33897 5.27621,11.28778 1.59641,5.13426 3.15461,10.2861 4.62475,15.45862 1.48408,5.83237 2.83681,11.7091 3.93528,17.62739 1.01078,7.24616 1.52745,14.55687 1.92465,21.85988 0.61096,7.92938 0.1849,15.80982 -0.93231,23.6655 -1.53886,9.26451 -4.94735,18.02512 -8.43782,26.69111 -2.16708,5.78552 -5.3689,11.0513 -8.5733,16.29702 -3.96549,5.66158 -7.65844,11.49046 -11.2417,17.40009 -4.75888,8.15067 -10.01272,15.99426 -15.06228,23.96491 -5.71656,8.03224 -11.87034,15.73954 -17.62881,23.7443 -5.88302,9.94566 -13.20077,18.78768 -20.85948,27.3832 -6.0648,6.34097 -11.19342,13.51091 -17.21308,19.88379 -3.38517,3.30113 -6.95857,6.48687 -9.57058,10.46419 0,0 18.41785,10.74367 18.41785,10.74367 v 0 c 2.43413,-3.93999 6.0732,-6.90374 9.24798,-10.21624 5.88374,-6.49557 10.97308,-13.68558 17.01359,-20.05273 7.68752,-8.66522 15.03928,-17.57343 21.02953,-27.53255 5.78731,-8.03497 12.02254,-15.73429 17.71287,-23.83782 5.06476,-7.97643 10.30531,-15.84233 15.1417,-23.96116 3.61644,-5.8915 7.38146,-11.67603 11.34328,-17.34105 3.26049,-5.35095 6.49176,-10.74166 8.66587,-16.65134 3.51001,-8.8322 6.83528,-17.78665 8.57264,-27.16515 1.30663,-7.95849 1.89523,-15.93744 1.21863,-24.00152 -0.36909,-7.36581 -0.89406,-14.72891 -1.73429,-22.0565 -1.01243,-5.98006 -2.45527,-11.88577 -3.83392,-17.78916 -1.35449,-5.22838 -3.08935,-10.35826 -4.55261,-15.55757 -1.31166,-4.06654 -2.60953,-8.16103 -4.99206,-11.75659 -2.08929,-3.34987 -4.57843,-6.39739 -6.94817,-9.5477 -2.70687,-3.12723 -5.65682,-5.954 -9.09003,-8.2949 -9.38834,-7.29347 -20.07638,-12.79118 -30.49737,-18.40729 -4.02956,-1.95177 -8.11853,-3.82104 -12.45006,-5.00879 -3.27884,-0.90619 -6.54417,-1.87281 -9.86663,-2.60986 -4.56983,-1.00182 -9.21069,-1.39578 -13.88958,-1.04723 -5.9282,0.32708 -11.98428,0.66413 -17.48269,3.12802 -5.32754,2.58201 -10.24568,5.84833 -14.11422,10.40322 -4.1363,5.02517 -7.21428,10.80864 -8.73701,17.17292 -1.13811,6.56359 -0.80158,12.98785 1.44377,19.31893 3.04607,8.24219 6.52188,13.133 13.53494,18.57029 12.03457,9.14464 25.67956,17.7864 40.98824,19.32542 1.19377,-0.0603 2.39836,-0.01 3.58134,-0.18088 6.03861,-0.87413 10.45211,-4.99008 13.73805,-9.87387 3.93207,-6.87998 6.74813,-14.21339 4.92891,-22.24158 -0.87338,-2.76208 -1.13139,-4.00067 -2.50725,-6.60033 -2.57066,-4.85726 -6.48882,-8.87045 -10.72239,-12.29585 -13.72278,-8.32115 -26.48441,-17.59749 -42.33859,-20.9798 -5.81511,-0.79945 -10.79104,-1.25824 -14.50812,4.04326 -2.71849,5.46397 -4.04534,11.41807 -3.4718,17.54314 1.12976,8.69013 3.11729,17.12853 9.06683,23.90791 9.16549,8.8733 3.57404,3.95201 25.10114,16.3457 4.83438,2.78328 10.03576,2.85046 15.33622,1.63876 1.25422,-0.35938 2.54137,-0.61916 3.76266,-1.07815 6.26464,-2.35437 10.7315,-7.17515 12.89414,-13.46268 0.28122,-1.25829 0.68005,-2.49596 0.84362,-3.77488 0.79291,-6.19952 -1.61061,-12.13465 -5.14212,-17.09652 -7.58843,-9.15016 -13.23308,-10.21325 -26.41053,-17.52223 -3.47885,-1.92958 -7.4672,-2.91381 -11.32904,-3.68099 -5.96415,-0.42679 -12.18119,-0.5388 -14.47592,6.09371 -0.83859,6.04587 0.38639,11.96365 3.51272,17.23581 6.66706,9.01251 12.86393,10.22049 25.07529,17.09166 2.70225,1.52052 5.80595,2.08765 8.85891,1.7676 5.54426,-1.80421 9.12954,-4.98979 10.48482,-10.82984 -0.0859,-0.88568 -10e-4,-1.80465 -0.25741,-2.65702 -0.89013,-2.97046 -3.94578,-5.97393 -6.48553,-7.56371 -13.71002,-8.58181 -15.25876,-9.38189 -24.38361,-14.38368 0,0 16.58387,13.25412 16.58387,13.25412 z" />
    <path
       style="fill:#000000;stroke-width:2;stroke:#ffffff;stroke-opacity:1;stroke-dasharray:none"
       id="path245"
       d="m 423.27182,202.94608 c -6.13397,5.9607 -8.82292,12.19546 -9.79726,20.55477 -0.4752,5.84562 1.47322,9.89513 4.81323,14.49329 6.66918,8.41844 16.11697,15.40324 26.84681,17.61555 4.29603,0.85584 8.00346,-0.56672 11.48031,-2.99234 4.13674,-3.17834 5.76472,-7.94015 6.94038,-12.81933 0.93939,-3.90599 0.98093,-7.73608 -0.0412,-11.60894 -1.23189,-4.24827 -4.09853,-7.36462 -7.29681,-10.25275 -9.05596,-6.82583 -19.05877,-14.38561 -30.69543,-14.97663 -2.61007,0.22913 -1.38356,-0.14725 -3.6781,1.13386 0,0 17.73459,11.81092 17.73459,11.81092 v 0 c 1.82491,-0.47218 0.82261,-0.33346 3.02183,-0.28821 1.91878,0.2726 2.37481,0.26146 4.26533,0.84939 6.40585,1.99216 20.30771,10.99186 -12.2417,-7.74467 -0.65322,-0.37602 1.2615,0.82515 1.89224,1.23772 3.16797,2.54466 6.28831,5.23488 7.75346,9.14935 1.3418,3.63481 1.35176,6.82941 0.57115,10.62086 -0.93904,4.40254 -2.24599,8.69555 -6.11741,11.40574 -3.29354,1.97642 -6.70064,2.69333 -10.4369,1.43858 -7.42922,-3.21467 -2.22885,-1.03645 15.32349,9.22868 0.47449,0.2775 -0.96629,-0.53201 -1.40543,-0.86263 -1.69861,-1.27889 -2.97768,-3.03208 -4.41959,-4.56696 -3.33381,-4.12215 -5.73276,-7.51977 -5.53139,-13.07532 0.59233,-7.94392 2.90543,-13.64856 9.00122,-19.05501 0,0 -17.98282,-11.29592 -17.98282,-11.29592 z" />
    <path
       style="fill:#000000;stroke-width:2;stroke:#ffffff;stroke-opacity:1;stroke-dasharray:none"
       id="path247"
       d="m 433.69327,269.09584 c -5.59682,4.60959 -9.42282,10.75204 -12.20419,17.36309 -1.75846,4.52209 -2.02849,9.24278 -1.07134,13.95697 1.01636,3.73978 2.75633,7.01212 5.57884,9.65992 8.08826,6.1692 16.94105,12.37015 27.078,14.17095 4.10033,0.59791 8.20982,-0.14814 11.61793,-2.501 3.80011,-2.56773 5.91534,-6.49679 7.64559,-10.61632 1.65703,-4.18971 2.11786,-8.61902 1.89806,-13.08206 -0.19557,-3.11234 -1.21358,-6.06249 -2.5774,-8.84038 -2.76218,-4.12387 -6.86952,-7.13507 -10.80621,-10.06704 -8.9042,-6.0438 -17.75977,-12.95219 -28.57898,-13.99751 -1.68855,-0.0859 -0.84384,-0.0595 -2.53413,-0.0791 0,0 17.21463,12.61625 17.21463,12.61625 v 0 c 1.6141,0.11695 0.81151,0.04 2.40781,0.22996 1.49457,0.26058 2.95522,0.56085 4.38044,1.1017 0.58737,0.22289 2.26874,1.07071 1.73061,0.74649 -4.81763,-2.90261 -23.30419,-13.56887 -14.35684,-8.40419 3.97035,2.66976 7.80795,5.67772 11.0526,9.20548 1.67186,2.31096 2.5846,5.17109 3.01485,7.97391 0.48059,4.13896 0.10532,8.29711 -1.36349,12.22045 -1.54999,3.74957 -3.47167,7.26463 -7.02954,9.45604 -3.27649,1.79767 -7.04863,1.97593 -10.66538,1.14689 -1.51259,-0.40738 -2.99808,-0.81368 -4.41372,-1.50069 -0.45531,-0.22096 -1.77397,-0.97469 -1.3379,-0.71782 18.06825,10.64348 22.04973,13.3767 15.39102,8.87768 -3.09371,-2.10751 -4.98504,-4.84766 -6.17822,-8.41835 -1.29471,-4.23766 -1.07376,-8.60221 0.40154,-12.78959 2.51274,-6.33999 6.09998,-12.20742 11.65225,-16.3447 0,0 -17.94683,-11.36703 -17.94683,-11.36703 z" />
  </g>
</svg>
